<?xml version="1.0" encoding="UTF-8" standalone="no"?>
<!DOCTYPE svg PUBLIC "-//W3C//DTD SVG 1.1//EN" "http://www.w3.org/Graphics/SVG/1.1/DTD/svg11.dtd">
<svg width="100%" height="100%" viewBox="0 0 600 400" version="1.1" xmlns="http://www.w3.org/2000/svg" xmlns:xlink="http://www.w3.org/1999/xlink" xml:space="preserve" xmlns:serif="http://www.serif.com/" style="fill-rule:evenodd;clip-rule:evenodd;">
    <rect x="0" y="0" width="600" height="400" style="fill:white;"/>
    <rect x="53.939" y="11.811" width="534.252" height="344.594" style="fill:white;"/>
    <path d="M68.428,356.405L68.428,11.811" style="fill:none;fill-rule:nonzero;stroke:black;stroke-opacity:0.1;stroke-width:0.5px;"/>
    <path d="M131.508,356.405L131.508,11.811" style="fill:none;fill-rule:nonzero;stroke:black;stroke-opacity:0.1;stroke-width:0.5px;"/>
    <path d="M194.588,356.405L194.588,11.811" style="fill:none;fill-rule:nonzero;stroke:black;stroke-opacity:0.1;stroke-width:0.5px;"/>
    <path d="M257.668,356.405L257.668,11.811" style="fill:none;fill-rule:nonzero;stroke:black;stroke-opacity:0.1;stroke-width:0.5px;"/>
    <path d="M320.748,356.405L320.748,11.811" style="fill:none;fill-rule:nonzero;stroke:black;stroke-opacity:0.1;stroke-width:0.5px;"/>
    <path d="M383.828,356.405L383.828,11.811" style="fill:none;fill-rule:nonzero;stroke:black;stroke-opacity:0.1;stroke-width:0.5px;"/>
    <path d="M446.908,356.405L446.908,11.811" style="fill:none;fill-rule:nonzero;stroke:black;stroke-opacity:0.1;stroke-width:0.5px;"/>
    <path d="M509.988,356.405L509.988,11.811" style="fill:none;fill-rule:nonzero;stroke:black;stroke-opacity:0.1;stroke-width:0.5px;"/>
    <path d="M573.068,356.405L573.068,11.811" style="fill:none;fill-rule:nonzero;stroke:black;stroke-opacity:0.1;stroke-width:0.5px;"/>
    <path d="M53.939,346.652L588.19,346.652" style="fill:none;fill-rule:nonzero;stroke:black;stroke-opacity:0.1;stroke-width:0.5px;"/>
    <path d="M53.939,310.53L588.19,310.53" style="fill:none;fill-rule:nonzero;stroke:black;stroke-opacity:0.1;stroke-width:0.5px;"/>
    <path d="M53.939,274.41L588.19,274.41" style="fill:none;fill-rule:nonzero;stroke:black;stroke-opacity:0.1;stroke-width:0.5px;"/>
    <path d="M53.939,238.289L588.19,238.289" style="fill:none;fill-rule:nonzero;stroke:black;stroke-opacity:0.1;stroke-width:0.5px;"/>
    <path d="M53.939,202.168L588.19,202.168" style="fill:none;fill-rule:nonzero;stroke:black;stroke-opacity:0.1;stroke-width:0.5px;"/>
    <path d="M53.939,166.048L588.19,166.048" style="fill:none;fill-rule:nonzero;stroke:black;stroke-opacity:0.1;stroke-width:0.5px;"/>
    <path d="M53.939,129.927L588.19,129.927" style="fill:none;fill-rule:nonzero;stroke:black;stroke-opacity:0.1;stroke-width:0.5px;"/>
    <path d="M53.939,93.806L588.19,93.806" style="fill:none;fill-rule:nonzero;stroke:black;stroke-opacity:0.1;stroke-width:0.5px;"/>
    <path d="M53.939,57.685L588.19,57.685" style="fill:none;fill-rule:nonzero;stroke:black;stroke-opacity:0.1;stroke-width:0.5px;"/>
    <path d="M53.939,21.564L588.19,21.564" style="fill:none;fill-rule:nonzero;stroke:black;stroke-opacity:0.1;stroke-width:0.5px;"/>
    <path d="M53.939,356.405L588.19,356.405" style="fill:none;fill-rule:nonzero;stroke:black;stroke-width:1px;"/>
    <path d="M53.939,356.405L53.939,11.811" style="fill:none;fill-rule:nonzero;stroke:black;stroke-width:1px;"/>
    <path d="M68.428,356.405L68.428,352.27" style="fill:none;fill-rule:nonzero;stroke:black;stroke-width:1px;"/>
    <path d="M131.508,356.405L131.508,352.27" style="fill:none;fill-rule:nonzero;stroke:black;stroke-width:1px;"/>
    <path d="M194.588,356.405L194.588,352.27" style="fill:none;fill-rule:nonzero;stroke:black;stroke-width:1px;"/>
    <path d="M257.668,356.405L257.668,352.27" style="fill:none;fill-rule:nonzero;stroke:black;stroke-width:1px;"/>
    <path d="M320.748,356.405L320.748,352.27" style="fill:none;fill-rule:nonzero;stroke:black;stroke-width:1px;"/>
    <path d="M383.828,356.405L383.828,352.27" style="fill:none;fill-rule:nonzero;stroke:black;stroke-width:1px;"/>
    <path d="M446.908,356.405L446.908,352.27" style="fill:none;fill-rule:nonzero;stroke:black;stroke-width:1px;"/>
    <path d="M509.988,356.405L509.988,352.27" style="fill:none;fill-rule:nonzero;stroke:black;stroke-width:1px;"/>
    <path d="M573.068,356.405L573.068,352.27" style="fill:none;fill-rule:nonzero;stroke:black;stroke-width:1px;"/>
    <path d="M53.939,346.652L60.35,346.652" style="fill:none;fill-rule:nonzero;stroke:black;stroke-width:1px;"/>
    <path d="M53.939,310.53L60.35,310.53" style="fill:none;fill-rule:nonzero;stroke:black;stroke-width:1px;"/>
    <path d="M53.939,274.41L60.35,274.41" style="fill:none;fill-rule:nonzero;stroke:black;stroke-width:1px;"/>
    <path d="M53.939,238.289L60.35,238.289" style="fill:none;fill-rule:nonzero;stroke:black;stroke-width:1px;"/>
    <path d="M53.939,202.168L60.35,202.168" style="fill:none;fill-rule:nonzero;stroke:black;stroke-width:1px;"/>
    <path d="M53.939,166.048L60.35,166.048" style="fill:none;fill-rule:nonzero;stroke:black;stroke-width:1px;"/>
    <path d="M53.939,129.927L60.35,129.927" style="fill:none;fill-rule:nonzero;stroke:black;stroke-width:1px;"/>
    <path d="M53.939,93.806L60.35,93.806" style="fill:none;fill-rule:nonzero;stroke:black;stroke-width:1px;"/>
    <path d="M53.939,57.685L60.35,57.685" style="fill:none;fill-rule:nonzero;stroke:black;stroke-width:1px;"/>
    <path d="M53.939,21.564L60.35,21.564" style="fill:none;fill-rule:nonzero;stroke:black;stroke-width:1px;"/>
    <g transform="matrix(1,0,0,1,68.428,369.905)">
        <text x="-3.337px" y="0px" style="font-family:'ArialMT', 'Arial', sans-serif;font-size:12px;">0</text>
    </g>
    <g transform="matrix(1,0,0,1,131.508,369.905)">
        <text x="-15.015px" y="0px" style="font-family:'ArialMT', 'Arial', sans-serif;font-size:12px;">1,000</text>
    </g>
    <g transform="matrix(1,0,0,1,194.588,369.905)">
        <text x="-15.015px" y="0px" style="font-family:'ArialMT', 'Arial', sans-serif;font-size:12px;">2,000</text>
    </g>
    <g transform="matrix(1,0,0,1,257.668,369.905)">
        <text x="-15.015px" y="0px" style="font-family:'ArialMT', 'Arial', sans-serif;font-size:12px;">3,000</text>
    </g>
    <g transform="matrix(1,0,0,1,320.748,369.905)">
        <text x="-15.015px" y="0px" style="font-family:'ArialMT', 'Arial', sans-serif;font-size:12px;">4,000</text>
    </g>
    <g transform="matrix(1,0,0,1,383.827,369.905)">
        <text x="-15.015px" y="0px" style="font-family:'ArialMT', 'Arial', sans-serif;font-size:12px;">5,000</text>
    </g>
    <g transform="matrix(1,0,0,1,446.908,369.905)">
        <text x="-15.015px" y="0px" style="font-family:'ArialMT', 'Arial', sans-serif;font-size:12px;">6,000</text>
    </g>
    <g transform="matrix(1,0,0,1,509.988,369.905)">
        <text x="-15.015px" y="0px" style="font-family:'ArialMT', 'Arial', sans-serif;font-size:12px;">7,000</text>
    </g>
    <g transform="matrix(1,0,0,1,573.067,369.905)">
        <text x="-15.015px" y="0px" style="font-family:'ArialMT', 'Arial', sans-serif;font-size:12px;">8,000</text>
    </g>
    <g transform="matrix(1,0,0,1,47.9385,351.027)">
        <text x="-16.682px" y="0px" style="font-family:'ArialMT', 'Arial', sans-serif;font-size:12px;">0.0</text>
    </g>
    <g transform="matrix(1,0,0,1,47.9385,314.905)">
        <text x="-16.682px" y="0px" style="font-family:'ArialMT', 'Arial', sans-serif;font-size:12px;">0.1</text>
    </g>
    <g transform="matrix(1,0,0,1,47.9385,278.785)">
        <text x="-16.682px" y="0px" style="font-family:'ArialMT', 'Arial', sans-serif;font-size:12px;">0.2</text>
    </g>
    <g transform="matrix(1,0,0,1,47.9385,242.664)">
        <text x="-16.682px" y="0px" style="font-family:'ArialMT', 'Arial', sans-serif;font-size:12px;">0.3</text>
    </g>
    <g transform="matrix(1,0,0,1,47.9385,206.543)">
        <text x="-16.682px" y="0px" style="font-family:'ArialMT', 'Arial', sans-serif;font-size:12px;">0.4</text>
    </g>
    <g transform="matrix(1,0,0,1,47.9385,170.423)">
        <text x="-16.682px" y="0px" style="font-family:'ArialMT', 'Arial', sans-serif;font-size:12px;">0.5</text>
    </g>
    <g transform="matrix(1,0,0,1,47.9385,134.302)">
        <text x="-16.682px" y="0px" style="font-family:'ArialMT', 'Arial', sans-serif;font-size:12px;">0.6</text>
    </g>
    <g transform="matrix(1,0,0,1,47.9385,98.1805)">
        <text x="-16.682px" y="0px" style="font-family:'ArialMT', 'Arial', sans-serif;font-size:12px;">0.7</text>
    </g>
    <g transform="matrix(1,0,0,1,47.9385,62.0595)">
        <text x="-16.682px" y="0px" style="font-family:'ArialMT', 'Arial', sans-serif;font-size:12px;">0.8</text>
    </g>
    <g transform="matrix(1,0,0,1,47.9385,25.9387)">
        <text x="-16.682px" y="0px" style="font-family:'ArialMT', 'Arial', sans-serif;font-size:12px;">0.9</text>
    </g>
    <g transform="matrix(1,0,0,1,321.062,389.87)">
        <text x="-89.868px" y="0px" style="font-family:'ArialMT', 'Arial', sans-serif;font-size:16.5px;">Monte Carlo macrosteps</text>
    </g>
    <g transform="matrix(-3.82857e-16,-1,1,-3.82857e-16,22.3215,184.108)">
        <text x="-51.365px" y="0px" style="font-family:'ArialMT', 'Arial', sans-serif;font-size:16.5px;">magnetization</text>
    </g>
    <g transform="matrix(1,0,0,1,-68.8292,0)">
        <path d="M169.053,356.405L169.053,11.811" style="fill:none;fill-rule:nonzero;stroke:black;stroke-width:1px;stroke-dasharray:10,3,0,0;"/>
    </g>
    <path d="M69.059,343.075L70.321,343.075L70.951,343.005L71.582,342.933L72.213,343.113L72.844,343.04L74.105,343.04L74.736,343.075L75.367,343.113L75.998,343.04L76.629,342.967L77.259,343.075L77.89,343.005L78.521,343.148L79.152,343.075L79.783,343.04L80.413,343.113L81.044,342.967L81.675,342.967L82.306,343.113L82.937,342.967L83.567,343.075L84.198,343.113L84.829,343.113L85.46,343.04L86.091,343.148L86.721,343.113L87.352,343.148L87.983,343.005L88.614,343.113L89.245,342.967L89.875,343.075L91.137,343.075L91.768,343.04L92.399,342.895L93.029,343.075L93.66,343.075L94.291,342.933L94.922,343.04L95.553,342.967L96.814,343.113L97.445,343.005L98.076,343.113L98.707,342.86L99.337,343.075L99.968,343.04L100.599,323.753L101.23,307.027L101.861,295.36L102.491,286.04L103.122,277.048L103.753,269.208L104.384,262.203L105.015,255.845L105.645,249.848L106.276,244.466L106.907,239.192L107.538,233.485L108.168,228.753L108.799,223.913L109.43,219.615L110.061,214.811L110.692,210.44L111.323,205.853L111.953,201.374L112.584,197.039L113.215,192.958L113.846,188.587L115.107,180.929L115.738,177.317L116.369,173.38L117,170.165L117.631,166.011L118.261,162.688L118.892,159.835L119.523,156.331L120.154,152.502L120.784,149.396L121.415,146.542L122.046,143.689L122.677,140.546L123.308,137.765L123.939,135.092L124.569,132.311L125.2,129.673L125.831,127.29L126.462,124.761L127.093,122.63L127.723,120.86L128.354,119.126L128.985,117.718L129.616,115.839L130.247,113.997L130.877,112.263L131.508,110.602L132.139,108.94L132.77,107.821L133.401,106.99L134.031,106.195L134.662,105.147L135.293,103.811L135.924,102.402L136.555,101.608L137.185,100.705L137.816,100.018L138.447,99.441L139.078,98.718L139.708,98.176L140.339,97.057L140.97,96.153L141.601,95.359L142.232,94.817L142.863,94.709L143.493,94.347L144.124,93.842L144.755,93.661L145.386,93.408L146.017,92.903L146.647,92.216L147.278,91.711L147.909,91.602L148.54,90.988L149.171,90.194L149.801,89.652L150.432,88.821L151.063,88.062L151.694,87.629L152.325,87.376L152.955,87.196L153.586,86.979L154.217,86.401L154.848,86.04L155.479,85.751L156.109,85.389L156.74,85.209L157.371,84.884L158.002,84.775L158.633,84.595L159.263,84.234L159.894,83.945L160.525,83.62L161.156,83.114L161.787,82.933L162.417,82.969L163.048,82.644L163.679,82.138L164.31,81.922L164.94,81.885L165.571,81.488L166.202,80.802L166.833,80.622L167.464,79.935L168.725,79.141L169.356,78.743L169.987,78.418L170.618,78.021L171.249,77.84L171.879,77.298L172.51,76.973L173.141,77.154L173.772,76.973L174.403,76.973L175.033,76.684L175.664,76.793L176.926,76.504L177.557,76.143L178.187,75.854L178.818,75.565L179.449,75.384L180.08,75.023L180.711,74.951L181.341,74.625L181.972,74.336L182.603,73.975L183.234,73.397L183.865,72.891L184.495,72.783L185.126,72.928L185.757,72.675L186.388,72.494L187.018,72.241L187.649,72.133L188.28,71.989L189.542,71.266L190.173,70.977L190.804,70.833L191.434,70.688L192.065,70.255L192.696,70.002L193.327,69.713L193.958,69.28L194.588,69.171L195.219,69.207L195.85,68.593L196.481,68.34L197.112,68.16L197.742,68.015L198.373,67.401L199.004,66.932L199.635,66.751L200.266,66.534L200.896,66.281L201.527,65.848L202.158,65.776L202.789,65.884L203.42,65.451L204.05,65.09L204.681,64.981L205.312,65.017L205.943,64.945L206.574,64.584L207.204,64.62L207.835,64.764L208.466,64.692L209.097,64.295L209.728,64.006L210.358,64.078L210.989,63.789L211.62,63.681L212.25,63.609L212.881,63.356L213.512,63.247L214.143,63.067L214.774,62.886L215.405,62.489L216.036,62.308L216.666,62.236L217.297,62.019L217.928,61.839L218.559,61.911L219.19,61.405L219.82,61.152L220.451,60.863L221.082,60.611L221.713,60.249L222.344,59.816L222.974,59.202L223.605,59.238L224.236,59.093L224.867,58.985L225.498,58.841L226.128,58.732L226.759,58.732L227.39,58.804L228.021,58.371L228.652,58.227L229.282,57.974L229.913,58.01L230.544,57.974L231.175,58.118L231.806,57.649L232.436,57.54L233.067,57.324L233.698,57.287L234.329,56.782L234.96,56.529L235.59,56.204L236.221,56.24L236.852,56.167L237.483,55.915L238.113,55.843L238.744,55.481L239.375,55.337L240.006,55.048L240.637,55.084L241.268,54.759L241.898,54.289L242.529,54.036L243.16,54.073L243.791,53.856L244.422,53.928L245.052,54.036L245.683,53.82L246.314,53.459L246.945,53.386L247.576,53.278L248.206,52.881L248.837,52.628L249.468,52.483L250.098,52.375L250.73,52.267L251.36,52.014L251.99,51.797L252.623,51.653L253.253,51.725L253.883,51.436L254.515,51.436L255.145,50.966L255.775,50.497L256.408,50.461L257.038,50.208L257.668,50.172L258.3,50.208L258.93,49.955L259.56,49.521L260.193,49.594L260.823,49.413L261.452,49.666L262.085,49.485L262.715,49.232L263.345,49.088L263.978,49.088L264.608,48.763L265.238,48.654L265.868,48.654L266.5,48.438L267.13,48.257L267.76,48.04L268.393,48.221L269.023,47.932L269.652,47.715L270.285,47.463L270.915,47.318L271.545,47.607L272.178,47.679L272.808,47.715L273.438,47.354L274.07,47.535L274.7,47.643L275.33,47.571L275.963,47.463L276.592,47.39L277.223,47.101L277.855,46.812L278.485,46.307L279.115,46.234L279.748,46.126L280.378,46.018L281.008,45.909L281.638,45.62L282.27,45.584L282.9,45.62L283.53,45.62L284.163,45.476L284.793,45.548L285.423,45.295L286.055,45.223L286.685,45.187L287.315,44.826L287.948,44.753L288.578,44.392L289.208,44.248L289.84,44.103L290.47,43.887L291.1,43.742L291.733,43.561L292.363,43.525L292.993,43.525L293.625,43.344L294.255,43.092L294.885,43.056L295.518,42.875L296.148,42.731L296.777,42.55L297.408,42.478L298.04,42.478L298.67,42.297L299.3,42.261L299.933,42.189L300.563,42.008L301.193,42.08L301.825,41.936L302.455,41.611L303.085,41.647L303.717,41.864L304.348,41.611L304.978,41.575L305.61,41.43L306.24,41.141L306.87,41.394L307.503,41.647L308.133,41.539L308.763,41.141L309.395,41.069L310.025,41.033L310.655,40.997L311.288,40.78L311.918,40.888L312.548,40.744L313.178,40.816L313.81,40.744L314.44,40.672L315.07,40.636L315.703,40.6L316.333,40.708L316.962,40.311L317.595,40.274L318.225,40.563L318.855,40.491L319.488,40.166L320.118,39.985L320.748,39.949L321.38,40.022L322.01,39.913L322.64,40.022L323.273,39.913L323.902,40.094L324.533,39.985L325.165,39.913L325.795,39.985L326.425,39.913L327.058,39.805L327.688,39.769L328.318,39.805L328.95,39.66L329.58,39.516L330.21,39.408L330.84,39.335L331.473,39.299L332.103,39.082L332.733,39.082L333.365,38.721L333.995,38.685L334.625,38.505L335.258,38.505L335.888,38.577L336.518,38.649L337.15,38.505L337.78,38.577L338.41,38.613L339.043,38.252L339.673,38.143L340.303,38.071L340.935,37.927L341.565,37.963L342.195,37.782L342.828,37.529L343.458,37.276L344.087,37.24L344.72,37.24L345.35,37.168L346.61,36.879L347.243,36.59L347.873,36.662L348.503,36.698L349.135,36.554L349.765,36.518L350.395,36.481L351.027,36.301L351.658,36.193L352.288,36.157L352.92,36.012L353.55,35.94L354.18,35.976L354.813,35.759L355.443,35.651L356.073,35.759L356.705,35.868L357.335,35.615L357.965,35.506L358.598,35.326L359.228,35.145L359.858,35.073L360.49,35.181L361.75,34.892L362.38,34.676L363.013,34.676L363.643,34.712L364.273,34.567L364.905,34.531L365.535,34.387L366.165,34.314L366.798,34.062L367.428,33.953L368.058,33.845L368.69,33.845L369.32,33.592L369.95,33.484L370.583,33.448L371.212,33.158L371.842,33.086L372.475,33.158L373.105,33.195L373.735,33.158L374.368,33.195L374.998,32.761L375.628,32.689L376.26,32.545L376.89,32.4L377.52,32.147L378.15,31.967L378.783,31.894L379.413,31.569L380.043,31.425L380.675,31.425L381.305,31.497L381.935,31.28L382.568,30.991L383.198,30.666L383.828,30.702L384.46,30.413L385.09,30.413L385.72,30.161L386.353,30.197L386.983,30.052L387.613,29.98L388.245,29.763L388.875,29.691L389.505,29.655L390.138,29.51L390.768,29.51L391.398,29.366L392.03,29.258L392.66,29.51L393.29,29.438L393.92,29.33L394.553,29.402L395.183,29.294L395.813,29.185L396.445,29.149L397.075,29.005L397.705,28.824L398.337,28.788L398.967,28.68L399.598,28.535L400.23,28.391L400.86,28.246L401.49,28.21L402.123,28.355L402.753,28.391L403.383,28.391L404.015,28.282L404.645,28.21L405.275,28.174L405.908,28.138L406.538,28.066L407.168,28.138L407.8,28.029L408.43,27.885L409.06,27.632L409.693,27.668L410.323,27.813L410.953,27.776L411.583,27.74L412.215,27.74L412.845,27.668L413.475,27.74L414.108,27.632L414.738,27.596L415.368,27.56L416,27.56L416.63,27.632L417.26,27.488L417.893,27.307L419.152,27.307L419.785,27.199L420.415,27.054L421.045,26.874L421.678,27.09L422.308,27.018L422.938,27.163L423.57,27.271L424.2,27.163L424.83,27.199L425.462,27.054L426.092,27.307L426.723,27.09L427.353,27.126L427.985,27.054L428.615,26.982L429.245,26.982L429.878,27.09L430.508,27.199L431.138,26.91L431.77,26.765L432.4,27.09L433.03,26.91L433.663,26.91L434.293,26.801L434.923,26.801L435.555,26.837L436.185,26.801L436.815,26.765L437.448,26.729L438.078,26.512L438.708,26.621L439.34,26.621L439.97,26.476L440.6,26.512L441.233,26.548L441.863,26.657L442.493,26.512L443.123,26.621L443.755,26.693L444.385,26.729L445.015,26.657L445.647,26.621L446.277,26.512L446.908,26.476L447.54,26.187L448.8,26.043L449.433,26.187L450.063,26.115L450.693,26.26L451.325,26.368L452.585,26.368L453.217,26.26L453.848,26.187L454.478,26.007L455.11,25.862L455.74,26.043L456.37,25.971L457.003,26.079L457.633,26.187L458.263,26.296L458.893,26.043L459.525,25.934L460.155,26.079L460.785,25.934L461.418,25.971L462.048,25.79L462.678,25.826L463.31,25.79L463.94,25.609L464.57,25.609L465.203,25.501L465.833,25.645L466.462,25.429L467.095,25.429L467.725,25.392L468.355,25.356L468.988,25.501L469.618,25.573L470.248,25.392L470.88,25.32L471.51,25.356L472.14,25.248L472.772,25.176L473.402,25.392L474.033,25.356L474.665,25.32L475.295,25.392L475.925,25.501L476.555,25.392L477.188,25.501L477.818,25.248L478.448,25.501L479.08,25.537L479.71,25.573L480.34,25.537L480.973,25.32L481.603,25.248L482.233,25.537L482.865,25.392L483.495,25.465L484.125,25.356L484.758,25.284L485.388,25.284L486.018,25.429L486.65,25.176L487.28,25.248L487.91,25.429L488.543,25.248L489.173,25.14L489.803,25.068L490.435,25.068L491.065,25.104L491.695,25.031L492.325,25.068L492.958,25.068L493.587,24.887L494.217,24.887L494.85,25.031L495.48,25.212L496.11,25.104L496.743,25.031L497.373,24.923L498.003,24.887L498.635,24.923L499.265,24.959L499.895,24.995L500.527,25.104L501.158,24.995L501.788,24.995L502.42,25.104L503.05,25.031L503.68,25.248L504.313,25.212L505.573,25.212L506.205,25.32L506.835,25.104L507.465,25.14L508.095,25.248L508.728,25.465L509.358,25.501L509.988,25.609L510.62,25.537L511.25,25.501L511.88,25.248L512.513,25.248L513.143,25.284L513.773,25.248L514.405,25.284L515.035,25.465L515.665,25.284L516.298,25.068L516.928,25.14L517.558,25.14L518.19,24.995L518.82,25.104L519.45,25.284L520.083,25.248L520.712,25.068L521.342,24.995L521.975,24.995L522.605,24.959L523.235,24.995L523.865,24.887L524.497,25.104L525.128,25.104L525.758,24.959L526.39,24.706L527.02,25.031L527.65,24.995L528.283,25.031L528.913,24.851L529.543,24.634L530.175,24.706L530.805,24.995L531.435,24.923L532.068,24.742L532.698,24.778L533.328,24.67L533.96,24.742L534.59,24.778L535.22,24.851L535.853,24.815L536.483,24.67L537.113,24.742L537.745,24.67L538.375,24.706L539.005,24.562L539.635,24.742L540.268,24.778L540.898,24.706L541.528,24.634L542.16,24.815L543.42,24.526L544.053,24.598L544.683,24.598L545.313,24.417L545.945,24.489L546.575,24.345L547.205,24.237L547.838,24.309L548.468,24.237L549.098,24.345L549.73,24.128L550.36,24.309L550.99,24.164L551.622,23.948L552.253,24.201L552.883,24.381L553.515,24.345L554.145,24.164L554.775,24.417L555.408,24.526L556.038,24.417L556.668,24.453L557.298,24.526L557.93,24.598L558.56,24.489L560.453,24.489L561.083,24.381L562.345,24.381L562.975,24.453L563.608,24.598L564.238,24.489L564.867,24.273L565.5,24.381L566.13,24.634L566.76,24.634L567.393,24.598L568.023,24.345L568.653,24.345L569.285,24.273L569.915,24.309L570.545,24.417L571.178,24.201L571.808,24.128L572.438,24.164L573.068,23.948" style="fill:none;fill-rule:nonzero;stroke:rgb(65,0,235);stroke-width:1.5px;"/>
    <path d="M69.059,342.933L69.69,343.04L70.321,343.04L70.951,342.967L71.582,343.005L72.213,343.04L72.844,343.005L73.475,343.005L74.105,343.075L74.736,343.005L75.367,343.005L75.998,343.075L76.629,343.113L77.259,343.005L79.152,343.005L79.783,343.04L80.413,342.967L81.044,343.04L81.675,343.075L82.937,343.075L83.567,343.005L84.198,343.04L84.829,342.967L85.46,343.005L86.091,343.005L86.721,343.113L87.352,343.075L87.983,343.075L88.614,343.04L89.245,343.075L89.875,343.04L90.506,343.04L91.137,343.075L91.768,343.113L92.399,343.005L93.029,343.075L93.66,343.075L94.291,342.933L94.922,342.967L95.553,343.075L96.183,343.185L96.814,343.113L97.445,342.967L98.076,343.075L98.707,343.075L99.337,343.04L99.968,343.113L100.599,335.635L101.23,328.7L101.861,324.655L102.491,321.005L103.122,317.9L103.753,315.19L104.384,312.842L105.015,310.243L105.645,307.858L106.276,305.908L106.907,303.813L107.538,301.863L108.168,299.803L108.799,297.78L109.43,295.902L110.061,294.24L110.692,292.398L111.323,290.738L111.953,289.438L112.584,288.46L113.215,287.16L113.846,285.753L114.477,284.308L115.107,283.152L115.738,281.96L116.369,280.913L117,279.828L117.631,278.638L118.261,277.373L118.892,276.073L119.523,274.773L120.154,273.615L120.784,272.64L121.415,271.592L122.046,270.365L122.677,269.318L123.308,268.16L123.939,267.368L124.569,266.355L125.2,265.38L125.831,264.188L126.462,263.14L127.093,261.875L127.723,260.938L128.354,260.035L128.985,259.13L129.616,258.228L130.247,257.433L130.877,256.53L131.508,255.482L132.139,254.255L132.77,253.495L133.401,252.558L134.031,251.762L134.662,250.823L135.293,249.884L135.924,249.017L136.555,247.861L137.185,247.139L137.816,246.344L138.447,245.477L139.078,244.899L139.708,244.177L140.339,243.563L140.97,242.66L141.601,241.974L142.232,241.251L142.863,240.384L143.493,239.301L144.124,238.434L144.755,237.82L145.386,237.242L146.017,236.23L146.647,235.472L147.278,234.569L147.909,233.63L149.171,232.04L149.801,231.354L150.432,230.559L151.063,229.837L151.694,229.115L152.325,228.573L152.955,227.85L153.586,227.236L154.217,226.189L154.848,225.539L155.479,225.033L156.109,224.311L156.74,223.696L157.371,223.191L158.002,222.396L159.263,221.168L159.894,220.409L160.525,219.651L161.156,219.001L161.787,218.098L162.417,217.231L163.048,216.653L163.679,216.039L164.31,215.316L164.94,214.63L165.571,214.161L166.202,213.547L166.833,213.041L167.464,212.391L168.095,211.885L168.725,211.199L169.356,210.332L169.987,209.826L170.618,208.923L171.249,208.309L171.879,207.623L172.51,206.9L173.141,206.286L173.772,205.636L174.403,204.769L175.033,204.155L175.664,203.577L176.295,202.963L176.926,202.566L177.557,202.132L178.187,201.843L178.818,201.446L179.449,200.976L180.08,200.399L180.711,200.11L181.341,199.351L181.972,198.701L182.603,198.303L183.234,197.762L183.865,197.364L184.495,196.714L185.126,196.1L185.757,195.558L186.388,195.089L187.018,194.475L187.649,193.752L188.28,193.066L188.911,192.416L189.542,192.055L190.173,191.404L190.804,190.79L191.434,190.249L192.696,189.381L193.327,188.84L193.958,188.117L194.588,187.395L195.219,186.889L195.85,186.311L196.481,185.697L197.112,185.119L197.742,184.397L198.373,184L199.004,183.386L199.635,182.771L200.266,182.302L200.896,181.868L201.527,181.182L202.158,180.568L202.789,179.99L203.42,179.412L204.05,178.618L204.681,178.076L205.312,177.57L205.943,177.173L206.574,176.523L207.204,175.981L207.835,175.403L208.466,174.861L209.097,174.175L209.728,173.705L210.358,172.982L210.989,172.441L211.62,172.007L212.25,171.574L212.881,170.96L213.512,170.346L214.143,169.949L214.774,169.335L215.405,168.973L216.036,168.431L216.666,167.817L217.297,167.276L217.928,166.589L218.559,166.048L219.19,165.614L219.82,165.253L220.451,164.819L221.082,164.241L221.713,163.627L222.344,163.194L222.974,162.688L223.605,162.219L224.236,162.183L224.867,161.749L225.498,161.388L226.128,160.882L226.759,160.232L227.39,159.582L228.021,159.22L228.652,158.823L229.282,158.39L229.913,157.848L230.544,157.378L231.175,156.801L231.806,156.331L232.436,155.825L233.067,155.572L233.698,155.139L234.329,154.814L234.96,154.308L235.59,153.766L236.221,153.333L236.852,152.827L237.483,152.321L238.113,152.105L238.744,151.599L239.375,150.768L240.006,150.407L240.637,150.082L241.268,149.54L241.898,148.962L242.529,148.457L243.16,148.095L243.791,147.77L244.422,147.409L245.052,147.265L245.683,146.867L246.314,146.109L246.945,145.278L247.576,144.808L248.206,144.23L248.837,143.833L249.468,143.327L250.098,142.858L250.73,142.533L251.36,141.955L251.99,141.594L252.623,141.305L253.253,140.943L253.883,140.69L254.515,140.185L255.145,139.679L255.775,139.354L256.408,139.029L257.038,138.595L257.668,138.271L258.3,137.765L258.93,137.62L259.56,137.367L260.193,137.079L260.823,136.862L261.452,136.32L262.085,136.067L262.715,135.417L263.345,134.947L263.978,134.55L264.608,134.261L265.238,134.044L265.868,133.611L266.5,133.394L267.13,133.286L267.76,132.852L268.393,132.491L269.023,132.166L269.652,131.66L270.285,131.263L270.915,130.902L271.545,130.215L272.178,129.854L272.808,129.276L273.438,128.987L274.07,128.951L274.7,128.698L275.33,128.626L275.963,128.373L277.223,127.362L277.855,127.145L278.485,126.929L279.115,126.531L279.748,125.953L280.378,125.592L281.008,125.448L281.638,125.231L282.27,124.942L282.9,124.364L283.53,124.256L284.163,123.894L284.793,123.75L285.423,123.425L286.055,123.172L286.685,123.172L287.315,122.919L287.948,122.45L288.578,122.124L289.208,121.944L289.84,121.655L290.47,121.185L291.1,120.86L291.733,120.752L292.363,120.427L292.993,120.174L293.625,119.813L294.255,119.488L294.885,119.271L295.518,118.874L296.148,118.657L296.777,118.512L297.408,118.151L298.04,117.826L298.67,117.501L299.3,117.031L299.933,116.706L300.563,116.417L301.193,116.273L301.825,116.02L302.455,115.55L303.085,115.225L303.717,114.9L304.348,114.503L304.978,114.322L305.61,113.997L306.24,113.6L306.87,113.166L307.503,112.877L308.133,112.625L308.763,112.083L309.395,111.902L310.025,111.794L310.655,111.541L311.288,111.288L311.918,110.71L312.548,110.313L313.178,110.096L313.81,109.843L314.44,109.374L315.07,109.049L315.703,108.796L316.333,108.615L316.962,108.29L317.595,107.965L318.225,107.748L318.855,107.459L319.488,107.207L320.118,106.629L320.748,106.303L321.38,106.123L322.01,105.834L322.64,105.473L323.273,105.039L323.902,104.931L324.533,104.786L325.165,104.786L325.795,104.534L326.425,104.281L327.058,103.992L327.688,103.956L328.318,103.631L328.95,103.558L329.58,103.197L330.21,102.763L330.84,102.655L331.473,102.294L332.103,102.33L332.733,102.186L333.365,102.113L333.995,101.861L334.625,101.897L335.258,101.536L335.888,101.355L336.518,101.319L337.15,101.03L337.78,100.994L338.41,100.705L339.043,100.632L339.673,100.307L340.303,99.946L340.935,99.802L341.565,99.621L342.195,99.296L342.828,98.971L343.458,98.574L344.087,98.429L344.72,98.429L345.35,97.96L345.98,97.562L346.61,97.309L347.243,96.876L347.873,96.948L348.503,96.768L349.135,96.731L349.765,96.659L350.395,96.442L351.027,96.117L352.288,95.684L352.92,95.539L353.55,95.323L354.18,95.214L354.813,95.07L355.443,94.781L356.073,94.673L356.705,94.456L357.335,94.384L357.965,94.347L358.598,94.203L359.228,94.022L359.858,94.275L360.49,93.95L361.12,93.806L361.75,93.697L362.38,93.444L363.013,93.3L363.643,93.119L364.273,93.047L364.905,93.083L365.535,92.903L366.165,92.867L366.798,92.505L367.428,92.505L368.058,92.289L368.69,92.108L369.32,91.891L369.95,91.747L370.583,91.602L371.842,91.024L372.475,90.988L373.105,90.844L373.735,90.699L374.368,90.735L374.998,90.591L375.628,90.302L376.26,90.302L376.89,90.23L377.52,89.905L378.15,89.796L378.783,89.832L379.413,89.652L380.043,89.543L380.675,89.29L381.305,89.037L381.935,89.001L382.568,88.785L383.198,88.496L383.828,88.532L384.46,88.351L385.09,88.315L385.72,88.062L386.353,87.882L386.983,87.846L387.613,87.882L388.245,87.773L388.875,87.412L389.505,87.304L390.138,87.232L390.768,87.196L391.398,86.979L392.03,86.798L392.66,86.545L393.29,86.365L393.92,86.256L394.553,86.148L395.183,86.184L395.813,86.004L396.445,85.895L397.075,85.787L397.705,85.498L398.337,85.209L398.967,85.245L399.598,85.353L400.23,85.245L400.86,85.101L401.49,84.92L402.123,84.812L402.753,84.992L403.383,84.667L404.015,84.522L404.645,84.414L405.275,84.342L405.908,84.161L406.538,84.197L407.168,84.197L407.8,83.981L408.43,83.981L409.06,83.945L409.693,83.583L410.323,83.62L410.953,83.728L411.583,83.8L412.215,83.62L412.845,83.439L413.475,83.367L414.108,83.331L414.738,83.042L415.368,82.933L416,82.897L416.63,82.789L417.26,82.753L417.893,82.536L418.522,82.428L419.152,82.319L419.785,82.283L420.415,82.283L421.045,82.138L421.678,82.211L422.308,81.994L422.938,82.102L423.57,81.958L424.2,81.814L424.83,81.741L425.462,81.633L426.092,81.85L426.723,81.669L427.353,81.344L427.985,81.199L428.615,81.055L429.245,81.163L429.878,81.091L430.508,81.272L431.138,81.308L431.77,81.199L432.4,81.091L433.03,80.874L433.663,80.947L434.923,80.947L435.555,80.766L436.185,80.73L436.815,80.585L437.448,80.369L438.078,80.188L438.708,79.899L439.34,79.899L439.97,79.935L440.6,79.863L441.233,79.754L441.863,79.646L442.493,79.61L443.123,79.393L443.755,79.43L444.385,79.538L445.015,79.357L445.647,79.141L446.277,78.888L446.908,78.671L447.54,78.671L448.17,78.852L448.8,78.671L449.433,78.671L450.063,78.49L450.693,78.418L451.325,78.454L451.955,78.454L452.585,78.382L453.217,78.238L453.848,78.238L454.478,78.021L455.11,78.021L455.74,77.912L456.37,78.021L457.003,78.021L457.633,77.696L458.263,77.623L458.893,77.443L459.525,77.443L460.155,77.335L460.785,77.623L461.418,77.659L462.048,77.406L462.678,77.298L463.31,77.19L463.94,77.19L464.57,77.118L465.203,77.154L465.833,77.082L466.462,76.901L467.095,76.793L467.725,76.901L468.355,76.757L468.988,76.54L469.618,76.395L470.248,76.648L470.88,76.612L471.51,76.54L472.14,76.395L472.772,76.504L473.402,76.504L474.033,76.359L474.665,76.612L475.295,76.576L475.925,76.648L476.555,76.287L477.188,76.395L477.818,76.431L478.448,76.179L479.08,76.468L479.71,76.395L480.34,76.287L480.973,76.215L481.603,76.106L482.233,76.034L482.865,76.07L483.495,76.106L484.125,76.215L484.758,76.106L485.388,76.034L486.018,76.034L486.65,76.07L487.28,76.07L487.91,76.034L488.543,75.926L489.173,75.89L489.803,75.926L490.435,75.926L491.065,75.709L491.695,75.745L492.325,75.601L492.958,75.673L493.587,75.565L494.217,75.275L494.85,75.275L495.48,75.384L496.11,75.312L496.743,75.384L497.373,75.312L498.003,75.131L498.635,75.131L499.265,75.059L499.895,75.131L500.527,75.275L501.158,75.203L501.788,75.167L502.42,74.987L503.05,75.131L503.68,75.023L504.313,74.878L504.943,74.625L505.573,74.698L506.205,74.914L506.835,74.806L507.465,74.914L508.095,74.914L508.728,74.878L509.358,74.734L510.62,74.734L511.25,74.625L511.88,74.445L512.513,74.445L513.143,74.3L513.773,74.12L514.405,74.373L515.665,74.373L516.298,74.553L516.928,74.336L517.558,74.481L518.19,74.373L518.82,74.3L519.45,74.373L520.083,74.156L520.712,74.048L521.342,74.264L521.975,74.228L522.605,74.048L523.235,74.12L523.865,74.011L524.497,73.939L525.128,73.65L525.758,73.578L526.39,73.759L527.02,73.722L527.65,73.722L528.283,73.578L529.543,73.433L530.175,73.325L530.805,73.217L531.435,73.433L532.068,73.397L532.698,73.217L533.328,73.217L533.96,73.325L534.59,73.47L535.22,73.325L535.853,73.325L536.483,72.928L537.113,72.928L537.745,72.964L538.375,72.856L539.005,72.783L539.635,72.639L540.898,72.639L541.528,72.675L542.16,72.53L542.79,72.53L543.42,72.747L544.053,72.747L544.683,72.53L545.313,72.494L545.945,72.567L546.575,72.458L547.205,72.458L547.838,72.278L548.468,72.386L549.098,72.494L549.73,72.35L550.36,72.241L550.99,72.458L551.622,72.458L552.253,72.386L552.883,72.422L553.515,72.386L554.145,72.35L554.775,72.386L555.408,72.458L556.038,72.603L556.668,72.603L557.298,72.169L557.93,72.133L558.56,72.097L559.19,72.133L559.823,72.097L560.453,72.025L561.083,71.916L561.715,71.952L562.345,71.7L562.975,71.808L563.608,71.627L564.238,71.555L564.867,71.664L565.5,71.916L566.13,71.952L566.76,71.808L567.393,71.916L568.023,71.916L568.653,71.591L569.285,71.483L569.915,71.447L570.545,71.519L571.178,71.555L571.808,71.555L572.438,71.483L573.068,71.375" style="fill:none;fill-rule:nonzero;stroke:rgb(235,0,65);stroke-width:1.5px;"/>
    <rect x="406.628" y="203.447" width="115.498" height="45.36" style="fill:white;"/>
    <path d="M406.628,248.807L522.125,248.807L522.125,203.447L406.628,203.447L406.628,248.807" style="fill:none;fill-rule:nonzero;stroke:black;stroke-width:1px;"/>
    <path d="M412.628,218.567L448.628,218.567" style="fill:none;fill-rule:nonzero;stroke:rgb(65,0,235);stroke-width:1.5px;"/>
    <g transform="matrix(1,0,0,1,454.627,222.942)">
        <text x="0px" y="0px" style="font-family:'ArialMT', 'Arial', sans-serif;font-size:12px;">Metropolis</text>
    </g>
    <path d="M412.628,233.687L448.628,233.687" style="fill:none;fill-rule:nonzero;stroke:rgb(235,0,65);stroke-width:1.5px;"/>
    <g transform="matrix(1,0,0,1,454.627,238.062)">
        <text x="0px" y="0px" style="font-family:'ArialMT', 'Arial', sans-serif;font-size:12px;">Glauber</text>
    </g>
    <g transform="matrix(1,0,0,1,64.428,45.1176)">
        <text x="0px" y="0px" style="font-family:'ArialMT', 'Arial', sans-serif;font-size:12px;">T=10</text>
    </g>
    <g transform="matrix(1,0,0,1,107.276,45.1176)">
        <text x="0px" y="0px" style="font-family:'ArialMT', 'Arial', sans-serif;font-size:12px;">T=2</text>
    </g>
</svg>
